<?xml version="1.0" encoding="UTF-8"?>
<svg id="Layer_1" data-name="Layer 1" xmlns="http://www.w3.org/2000/svg" version="1.1" viewBox="0 0 85.3 73.6">
  <defs>
    <style>
      .cls-1 {
        fill: #000;
        font-family: OctoberMeeteiMayek-Medium, 'October Meetei Mayek';
        font-size: 8px;
        font-weight: 500;
      }

      .cls-2 {
        fill: #f2f2f2;
      }

      .cls-2, .cls-3 {
        fill-opacity: .9;
        stroke: #000;
        stroke-linecap: round;
        stroke-linejoin: round;
        stroke-width: .5px;
      }

      .cls-3 {
        fill: #ddd;
      }
    </style>
  </defs>
  <polygon id="h1-3308" class="cls-3" points="43.2 36.8 56.5 13.9 63.1 25.3 56.5 36.8 43.2 36.8"/>
  <polygon id="h1-3309" class="cls-2" points="56.5 59.7 43.2 36.8 56.5 36.8 63.1 48.3 56.5 59.7"/>
  <polygon id="h1-3314" class="cls-3" points="82.9 36.8 56.5 36.8 63.1 25.3 76.3 25.3 82.9 36.8"/>
  <polygon id="h1-3315" class="cls-2" points="56.5 36.8 82.9 36.8 76.3 48.3 63.1 48.3 56.5 36.8"/>
  <polygon id="h1-3320" class="cls-3" points="63.1 2.4 76.3 25.3 63.1 25.3 56.5 13.9 63.1 2.4"/>
  <polygon id="h1-3321" class="cls-2" points="76.3 48.3 63.1 71.2 56.5 59.7 63.1 48.3 76.3 48.3"/>
  <polygon id="h1-3318" class="cls-3" points="3.5 36.8 16.8 13.9 23.4 25.3 16.8 36.8 3.5 36.8"/>
  <polygon id="h1-3323" class="cls-2" points="16.8 59.7 3.5 36.8 16.8 36.8 23.4 48.3 16.8 59.7"/>
  <polygon id="h1-3306" class="cls-3" points="43.2 36.8 16.8 36.8 23.4 25.3 36.6 25.3 43.2 36.8"/>
  <polygon id="h1-3307" class="cls-2" points="56.5 13.9 43.2 36.8 36.6 25.3 43.2 13.9 56.5 13.9"/>
  <polygon id="h1-3310" class="cls-3" points="43.2 36.8 56.5 59.7 43.2 59.7 36.6 48.3 43.2 36.8"/>
  <polygon id="h1-3311" class="cls-2" points="16.8 36.8 43.2 36.8 36.6 48.3 23.4 48.3 16.8 36.8"/>
  <polygon id="h1-3312" class="cls-3" points="23.4 2.4 36.6 25.3 23.4 25.3 16.8 13.9 23.4 2.4"/>
  <polygon id="h1-3313" class="cls-2" points="36.6 25.3 23.4 2.4 36.6 2.4 43.2 13.9 36.6 25.3"/>
  <polygon id="h1-3316" class="cls-3" points="23.4 71.2 36.6 48.3 43.2 59.7 36.6 71.2 23.4 71.2"/>
  <polygon id="h1-3317" class="cls-2" points="36.6 48.3 23.4 71.2 16.8 59.7 23.4 48.3 36.6 48.3"/>
  <polygon id="h1-3319" class="cls-2" points="36.6 2.4 63.1 2.4 56.5 13.9 43.2 13.9 36.6 2.4"/>
  <polygon id="h1-3322" class="cls-3" points="63.1 71.2 36.6 71.2 43.2 59.7 56.5 59.7 63.1 71.2"/>
  <text class="cls-1" transform="translate(27.2 45)"><tspan x="0" y="0">0</tspan></text>
  <text class="cls-1" transform="translate(43.1 24.7)"><tspan x="0" y="0">2</tspan></text>
  <text class="cls-1" transform="translate(52.3 48.3)"><tspan x="0" y="0">4</tspan></text>
  <text class="cls-1" transform="translate(66.6 35.2)"><tspan x="0" y="0">7</tspan></text>
  <text class="cls-1" transform="translate(21.9 59.2)"><tspan x="0" y="0">8</tspan></text>
  <text class="cls-1" transform="translate(11.8 49.2)"><tspan x="0" y="0">16</tspan></text>
  <text class="cls-1" transform="translate(61.2 19)"><tspan x="0" y="0">17</tspan></text>
  <text class="cls-1" transform="translate(22.1 19.2)"><tspan x="0" y="0">11</tspan></text>
  <text class="cls-1" transform="translate(10.7 32.6)"><tspan x="0" y="0">15</tspan></text>
  <text class="cls-1" transform="translate(50.6 34.4)"><tspan x="0" y="0">3</tspan></text>
  <text class="cls-1" transform="translate(43.5 54.1)"><tspan x="0" y="0">5</tspan></text>
  <text class="cls-1" transform="translate(45.4 68.9)"><tspan x="0" y="0">13</tspan></text>
  <text class="cls-1" transform="translate(66.7 45)"><tspan x="0" y="0">6</tspan></text>
  <text class="cls-1" transform="translate(61 60.1)"><tspan x="0" y="0">14</tspan></text>
  <text class="cls-1" transform="translate(31.7 66.2)"><tspan x="0" y="0">9</tspan></text>
  <text class="cls-1" transform="translate(31.8 14.5)"><tspan x="0" y="0">10</tspan></text>
  <text class="cls-1" transform="translate(45.1 11.3)"><tspan x="0" y="0">12</tspan></text>
  <text class="cls-1" transform="translate(28 35)"><tspan x="0" y="0">1</tspan></text>
</svg>