<?xml version="1.0" encoding="UTF-8"?>
<svg id="Layer_1" data-name="Layer 1" xmlns="http://www.w3.org/2000/svg" version="1.1" viewBox="0 0 85.3 73.6">
  <defs>
    <style>
      .cls-1 {
        fill: #000;
        font-family: OctoberMeeteiMayek-Medium, 'October Meetei Mayek';
        font-size: 8px;
        font-weight: 500;
      }

      .cls-2 {
        fill: #f2f2f2;
      }

      .cls-2, .cls-3 {
        fill-opacity: .9;
        stroke: #000;
        stroke-linecap: round;
        stroke-linejoin: round;
        stroke-width: .5px;
      }

      .cls-3 {
        fill: #ddd;
      }
    </style>
  </defs>
  <polygon id="h1-3308" class="cls-3" points="43 36.6 56.3 13.7 62.9 25.1 56.3 36.6 43 36.6"/>
  <polygon id="h1-3309" class="cls-2" points="56.3 59.5 43 36.6 56.3 36.6 62.9 48.1 56.3 59.5"/>
  <polygon id="h1-3314" class="cls-3" points="82.7 36.6 56.3 36.6 62.9 25.1 76.1 25.1 82.7 36.6"/>
  <polygon id="h1-3315" class="cls-2" points="56.3 36.6 82.7 36.6 76.1 48.1 62.9 48.1 56.3 36.6"/>
  <polygon id="h1-3320" class="cls-3" points="62.9 2.2 76.1 25.1 62.9 25.1 56.3 13.7 62.9 2.2"/>
  <polygon id="h1-3321" class="cls-2" points="76.1 48.1 62.9 71 56.3 59.5 62.9 48.1 76.1 48.1"/>
  <polygon id="h1-3318" class="cls-3" points="3.3 36.6 16.6 13.7 23.2 25.1 16.6 36.6 3.3 36.6"/>
  <polygon id="h1-3323" class="cls-2" points="16.6 59.5 3.3 36.6 16.6 36.6 23.2 48.1 16.6 59.5"/>
  <polygon id="h1-3306" class="cls-3" points="43 36.6 16.6 36.6 23.2 25.1 36.4 25.1 43 36.6"/>
  <polygon id="h1-3307" class="cls-2" points="56.3 13.7 43 36.6 36.4 25.1 43 13.7 56.3 13.7"/>
  <polygon id="h1-3310" class="cls-3" points="43 36.6 56.3 59.5 43 59.5 36.4 48.1 43 36.6"/>
  <polygon id="h1-3311" class="cls-2" points="16.6 36.6 43 36.6 36.4 48.1 23.2 48.1 16.6 36.6"/>
  <polygon id="h1-3312" class="cls-3" points="23.2 2.2 36.4 25.1 23.2 25.1 16.6 13.7 23.2 2.2"/>
  <polygon id="h1-3313" class="cls-2" points="36.4 25.1 23.2 2.2 36.4 2.2 43 13.7 36.4 25.1"/>
  <polygon id="h1-3316" class="cls-3" points="23.2 71 36.4 48.1 43 59.5 36.4 71 23.2 71"/>
  <polygon id="h1-3317" class="cls-2" points="36.4 48.1 23.2 71 16.6 59.5 23.2 48.1 36.4 48.1"/>
  <polygon id="h1-3319" class="cls-2" points="36.4 2.2 62.9 2.2 56.3 13.7 43 13.7 36.4 2.2"/>
  <polygon id="h1-3322" class="cls-3" points="62.9 71 36.4 71 43 59.5 56.3 59.5 62.9 71"/>
  <text class="cls-1" transform="translate(24.7 44.8)"><tspan x="0" y="0">0a</tspan></text>
  <text class="cls-1" transform="translate(41.3 24.5)"><tspan x="0" y="0">1a</tspan></text>
  <text class="cls-1" transform="translate(49.9 48.1)"><tspan x="0" y="0">2a</tspan></text>
  <text class="cls-1" transform="translate(63.7 35)"><tspan x="0" y="0">3b</tspan></text>
  <text class="cls-1" transform="translate(19.5 59)"><tspan x="0" y="0">4a</tspan></text>
  <text class="cls-1" transform="translate(10.8 48.9)"><tspan x="0" y="0">8a</tspan></text>
  <text class="cls-1" transform="translate(59.6 18.7)"><tspan x="0" y="0">8b</tspan></text>
  <text class="cls-1" transform="translate(20.2 19)"><tspan x="0" y="0">5b</tspan></text>
  <text class="cls-1" transform="translate(9.8 32.3)"><tspan x="0" y="0">7b</tspan></text>
  <text class="cls-1" transform="translate(48.5 34.1)"><tspan x="0" y="0">1b</tspan></text>
  <text class="cls-1" transform="translate(40.8 53.8)"><tspan x="0" y="0">2b</tspan></text>
  <text class="cls-1" transform="translate(44.2 68.6)"><tspan x="0" y="0">6b</tspan></text>
  <text class="cls-1" transform="translate(64.3 44.8)"><tspan x="0" y="0">3a</tspan></text>
  <text class="cls-1" transform="translate(60.3 59.8)"><tspan x="0" y="0">7a</tspan></text>
  <text class="cls-1" transform="translate(28.9 66)"><tspan x="0" y="0">4b</tspan></text>
  <text class="cls-1" transform="translate(31 14.2)"><tspan x="0" y="0">5a</tspan></text>
  <text class="cls-1" transform="translate(44.2 11.1)"><tspan x="0" y="0">6a</tspan></text>
  <text class="cls-1" transform="translate(24.3 34.7)"><tspan x="0" y="0">0b</tspan></text>
</svg>